<?xml version="1.0" encoding="UTF-8" standalone="no"?>
<!-- Created with Inkscape (http://www.inkscape.org/) -->

<svg
   xmlns:dc="http://purl.org/dc/elements/1.1/"
   xmlns:cc="http://creativecommons.org/ns#"
   xmlns:rdf="http://www.w3.org/1999/02/22-rdf-syntax-ns#"
   xmlns:svg="http://www.w3.org/2000/svg"
   xmlns="http://www.w3.org/2000/svg"
   xmlns:sodipodi="http://sodipodi.sourceforge.net/DTD/sodipodi-0.dtd"
   xmlns:inkscape="http://www.inkscape.org/namespaces/inkscape"
   width="1024"
   height="530"
   id="svg2999"
   version="1.1"
   inkscape:version="0.48.4 r9939"
   sodipodi:docname="dont_cheat_at_steam_inkscape.svg"
   inkscape:export-filename="dont_cheat_at_steam_inkscape.png"
   inkscape:export-xdpi="190"
   inkscape:export-ydpi="190">
  <defs
     id="defs3001">
    <inkscape:path-effect
       effect="spiro"
       id="path-effect3856"
       is_visible="true" />
    <inkscape:path-effect
       effect="spiro"
       id="path-effect3852"
       is_visible="true" />
    <filter
       color-interpolation-filters="sRGB"
       inkscape:collect="always"
       id="filter3847-4"
       x="-0.1508982"
       width="1.3017964"
       y="-0.30179641"
       height="1.6035928">
      <feGaussianBlur
         inkscape:collect="always"
         stdDeviation="1.5243021"
         id="feGaussianBlur3849-8" />
    </filter>
  </defs>
  <sodipodi:namedview
     id="base"
     pagecolor="#ffffff"
     bordercolor="#666666"
     borderopacity="1.0"
     inkscape:pageopacity="0.0"
     inkscape:pageshadow="2"
     inkscape:zoom="0.5"
     inkscape:cx="380.67033"
     inkscape:cy="513.90339"
     inkscape:current-layer="layer1"
     showgrid="true"
     inkscape:grid-bbox="true"
     inkscape:document-units="px"
     inkscape:window-width="1920"
     inkscape:window-height="1025"
     inkscape:window-x="-2"
     inkscape:window-y="-3"
     inkscape:window-maximized="1"
     inkscape:snap-to-guides="false"
     inkscape:snap-nodes="true"
     inkscape:snap-midpoints="false"
     inkscape:object-paths="false"
     inkscape:snap-intersection-paths="true"
     inkscape:snap-bbox="true"
     inkscape:snap-center="true"
     inkscape:snap-object-midpoints="true"
     inkscape:snap-page="true"
     inkscape:snap-grids="false" />
  <metadata
     id="metadata3004">
    <rdf:RDF>
      <cc:Work
         rdf:about="">
        <dc:format>image/svg+xml</dc:format>
        <dc:type
           rdf:resource="http://purl.org/dc/dcmitype/StillImage" />
        <dc:title></dc:title>
      </cc:Work>
    </rdf:RDF>
  </metadata>
  <g
     id="layer1"
     inkscape:label="Layer 1"
     inkscape:groupmode="layer"
     transform="translate(0,498)">
    <path
       sodipodi:type="arc"
       style="fill:#000000;fill-opacity:1"
       id="path3757"
       sodipodi:cx="312.85715"
       sodipodi:cy="328.07648"
       sodipodi:rx="130"
       sodipodi:ry="130"
       d="m 442.85715,328.07648 c 0,71.79701 -58.20299,130 -130,130 -71.79702,0 -130,-58.20299 -130,-130 0,-71.79702 58.20298,-130 130,-130 71.79701,0 130,58.20298 130,130 z"
       transform="matrix(1.5969838,0,0,1.5969838,-263.44595,-797.6817)"
       inkscape:export-filename="ugtrain_logo.png"
       inkscape:export-xdpi="218.13017"
       inkscape:export-ydpi="218.13017" />
    <path
       sodipodi:type="arc"
       style="fill:#ffffff;fill-opacity:1"
       id="path3759"
       sodipodi:cx="202.85715"
       sodipodi:cy="682.36218"
       sodipodi:rx="122.85714"
       sodipodi:ry="61.42857"
       d="m 325.71429,682.36218 c 0,33.92606 -55.00502,61.42857 -122.85714,61.42857 -67.85213,0 -122.857142,-27.50251 -122.857142,-61.42857 0,-33.92606 55.005012,-61.42857 122.857142,-61.42857 67.85212,0 122.85714,27.50251 122.85714,61.42857 z"
       transform="matrix(1.2998705,0,0,1.411288,-29.787594,-1229.9143)"
       inkscape:export-filename="ugtrain_logo.png"
       inkscape:export-xdpi="218.13017"
       inkscape:export-ydpi="218.13017" />
    <path
       sodipodi:type="arc"
       style="fill:#000000;fill-opacity:1"
       id="path3763"
       sodipodi:cx="365.71429"
       sodipodi:cy="655.2193"
       sodipodi:rx="22.857143"
       sodipodi:ry="22.857143"
       d="m 388.57144,655.2193 c 0,12.62365 -10.23349,22.85714 -22.85715,22.85714 -12.62365,0 -22.85714,-10.23349 -22.85714,-22.85714 0,-12.62365 10.23349,-22.85714 22.85714,-22.85714 12.62366,0 22.85715,10.23349 22.85715,22.85714 z"
       transform="matrix(2.9121468,0,0,3.1939674,-782.80117,-2355.0907)"
       inkscape:export-filename="ugtrain_logo.png"
       inkscape:export-xdpi="218.13017"
       inkscape:export-ydpi="218.13017" />
    <path
       style="fill:#000000;stroke:#000000;stroke-width:2.13625479px;stroke-linecap:butt;stroke-linejoin:miter;stroke-opacity:1"
       d="m 301.89315,-467.61455 225.39901,2.10729 77.3428,67.43389 0,86.39967 -61.87425,0 0,-56.89732 -48.61548,-40.03888 -172.36394,0 c -19.88814,-54.79003 -19.88814,-59.00465 -19.88814,-59.00465 z"
       id="path3791"
       inkscape:connector-curvature="0"
       sodipodi:nodetypes="cccccccc"
       inkscape:export-filename="ugtrain_logo.png"
       inkscape:export-xdpi="218.13017"
       inkscape:export-ydpi="218.13017" />
    <path
       sodipodi:type="arc"
       style="fill:#ffffff;fill-opacity:1;stroke:#000000;filter:url(#filter3847-4)"
       id="path3793"
       sodipodi:cx="206.07112"
       sodipodi:cy="221.00664"
       sodipodi:rx="12.121831"
       sodipodi:ry="6.0609155"
       d="m 218.19295,221.00664 c 0,3.34735 -5.42713,6.06091 -12.12183,6.06091 -6.6947,0 -12.12183,-2.71356 -12.12183,-6.06091 0,-3.34735 5.42713,-6.06092 12.12183,-6.06092 6.6947,0 12.12183,2.71357 12.12183,6.06092 z"
       transform="matrix(1.5969838,0,0,1.5969838,-64.572263,-638.53683)"
       inkscape:export-filename="ugtrain_logo.png"
       inkscape:export-xdpi="218.13017"
       inkscape:export-ydpi="218.13017" />
    <path
       style="fill:#000000;stroke:#000000;stroke-width:8.40141392px;stroke-linecap:butt;stroke-linejoin:miter;stroke-opacity:1"
       d="m 558.83977,-34.97661 c -20.60539,28.20814 -66.35376,35.83292 -90.21523,2.56187 -34.94888,-48.73083 15.035,-43.74516 -109.67729,-137.58735 l -29.50863,42.02298 c 117.43208,90.6765 73.66628,79.54353 116.16804,121.8411 32.1774,32.02282 76.19046,43.16459 125.11993,-2.77796 14.08454,-23.2586 41.53034,-86.29475 -44.74939,-122.03226 39.4624,41.92751 49.15053,57.27686 32.86257,95.97162 z"
       id="path3934"
       inkscape:connector-curvature="0"
       sodipodi:nodetypes="csccsccc"
       inkscape:export-filename="ugtrain_logo.png"
       inkscape:export-xdpi="218.13017"
       inkscape:export-ydpi="218.13017" />
    <g
       id="g3071"
       transform="matrix(1.139044,0,0,1.139044,460.23527,-291.79248)">
      <rect
         id="Background"
         y="0"
         x="0"
         height="126"
         width="440.91599" />
      <path
         style="fill:#ffffff;fill-opacity:1;fill-rule:nonzero;stroke:none"
         id="Gears"
         d="m 218.67501,42.249999 c 0,8.97 -7.28,16.250001 -16.25001,16.250001 -8.96999,0 -16.25,-7.280001 -16.25,-16.250001 0,-8.970001 7.28001,-16.250001 16.25,-16.250001 8.97001,0 16.25001,7.28 16.25001,16.250001 z M 202.34375,11.999998 c -16.66072,0 -30.19243,13.43644 -30.34375,30.0625 l -18.90625,27.09375 c -0.77022,-0.0797 -1.55305,-0.125 -2.34375,-0.125 -4.22405,-6e-6 -8.17152,1.161163 -11.5625,3.1875 l -85.625,-34.4375 c -2.237816,-10.158813 -11.31628,-17.8125 -22.125,-17.8125 -12.479368,-3e-6 -22.65625,10.208128 -22.65625,22.6875 -1.2e-6,12.479366 10.176878,22.65625 22.65625,22.65625 4.223861,-6e-6 8.171517,-1.161101 11.5625,-3.1875 l 85.625,34.375 c 2.2152,10.182552 11.29462,17.843752 22.125,17.843752 11.73131,0 21.41029,-8.99255 22.53125,-20.437502 l 29.0625,-21.25 c 16.75121,-2e-6 30.34376,-13.566124 30.34375,-30.3125 1e-5,-16.755956 -13.59133,-30.34375 -30.34375,-30.34375 z m 0,10 c 11.22382,0 20.34375,9.119658 20.34375,20.34375 -1e-5,11.22409 -9.11993,20.3125 -20.34375,20.3125 C 191.11994,62.656246 182,53.56784 182,42.343748 c -1e-5,-11.224094 9.11993,-20.34375 20.34375,-20.34375 z M 31.4375,25.968748 c 6.397402,-3e-6 11.926337,3.574206 14.71875,8.84375 l -8.28125,-3.3125 0,0.03125 c -6.672004,-2.396 -14.084,0.865 -16.75,7.5 -2.666002,6.634994 0.401,14.14525 6.875,17.03125 l 0,0.03125 7.03125,2.8125 c -1.155873,0.251763 -2.359837,0.40625 -3.59375,0.40625 -9.232991,2e-6 -16.65625,-7.423254 -16.65625,-16.65625 0,-9.232998 7.423254,-16.6875 16.65625,-16.6875 z m 119.3125,49.0625 c 9.23351,-8e-6 16.65625,7.422702 16.65625,16.65625 -4e-5,9.233552 -7.4227,16.656252 -16.65625,16.656252 -6.42264,0 -11.96824,-3.581 -14.75,-8.875002 2.7391,1.105312 5.48292,2.199332 8.21875,3.312502 6.78897,2.728 14.521,-0.55275 17.25,-7.343752 2.72896,-6.789005 -0.585,-14.49075 -7.375,-17.21875 l -6.9375,-2.78125 c 1.15588,-0.251754 2.35976,-0.40625 3.59375,-0.40625 z"
         inkscape:connector-curvature="0" />
      <path
         style="fill:#ffffff"
         id="S"
         d="m 269.918,48.179 c 0,3.129 -1.154,5.584 -3.461,7.363 -2.308,1.782 -5.242,2.672 -8.804,2.672 -5.172,0 -9.198,-1.455 -12.078,-4.367 l 4.181,-4.181 c 1.858,1.858 4.521,2.787 7.991,2.787 3.902,0 5.853,-1.362 5.853,-4.088 0,-1.239 -0.324,-2.161 -0.975,-2.765 -0.651,-0.604 -1.642,-0.999 -2.974,-1.185 l -3.995,-0.557 c -5.854,-0.806 -8.78,-3.887 -8.78,-9.245 0,-3.005 1.037,-5.429 3.112,-7.271 2.074,-1.843 4.879,-2.765 8.408,-2.765 4.461,0 8.021,1.285 10.687,3.855 l -4.089,4.042 c -1.579,-1.517 -3.84,-2.276 -6.783,-2.276 -1.642,0 -2.903,0.396 -3.786,1.185 -0.883,0.789 -1.323,1.789 -1.323,2.996 0,0.961 0.349,1.766 1.045,2.416 0.696,0.651 1.695,1.069 2.996,1.255 l 3.902,0.557 c 2.817,0.404 4.925,1.255 6.318,2.556 1.704,1.612 2.555,3.949 2.555,7.016 z"
         inkscape:connector-curvature="0" />
      <path
         style="fill:#ffffff"
         id="T"
         d="m 302.235,30.618 -8.642,0 0,27.317 -6.457,0 0,-27.317 -8.641,0 0,-5.761 23.739,0 0,5.761 0.001,0 z"
         inkscape:connector-curvature="0" />
      <path
         style="fill:#ffffff"
         id="E"
         d="m 334.273,57.936 -21.788,0 0,-33.079 21.788,0 0,5.761 -15.331,0 0,7.759 13.056,0 0,5.761 -13.056,0 0,8.037 15.331,0 0,5.761 z"
         inkscape:connector-curvature="0" />
      <path
         style="fill:#ffffff"
         id="A"
         d="m 373.142,57.936 -6.736,0 -1.951,-5.854 -11.754,0 -1.996,5.854 -6.737,0 12.032,-33.079 5.064,0 12.078,33.079 z m -10.405,-11.29 -4.043,-12.032 -4.181,12.032 8.224,0 z"
         inkscape:connector-curvature="0" />
      <path
         style="fill:#ffffff"
         id="M"
         d="m 412.195,57.936 -6.457,0 0,-19.28 -6.319,12.543 -4.366,0 -6.364,-12.543 0,19.28 -6.458,0 0,-33.079 6.339,0 8.607,17.887 8.562,-17.887 6.457,0 0,33.079 -0.001,0 z"
         inkscape:connector-curvature="0" />
      <path
         style="fill:#ffffff"
         id="SmallT"
         d="m 422.917,26.363 -2.232,0 0,7.056 -1.668,0 0,-7.056 -2.231,0 0,-1.488 6.132,0 0,1.488 -0.001,0 z"
         inkscape:connector-curvature="0" />
      <path
         style="fill:#ffffff"
         id="SmallM"
         d="m 431.763,33.419 -1.668,0 0,-4.98 -1.633,3.24 -1.128,0 -1.644,-3.24 0,4.98 -1.668,0 0,-8.544 1.638,0 2.223,4.62 2.212,-4.62 1.668,0 0,8.544 z"
         inkscape:connector-curvature="0" />
    </g>
    <path
       style="fill:#d40000;stroke:#ff0000;stroke-width:26.4470005;stroke-linecap:butt;stroke-linejoin:miter;stroke-miterlimit:4;stroke-opacity:1;stroke-dasharray:none"
       d="M 460.10228,-377.27705 990.4509,-109.84508"
       id="path3864"
       inkscape:connector-curvature="0" />
    <path
       style="fill:#d40000;stroke:#ff0000;stroke-width:26.4470005;stroke-linecap:butt;stroke-linejoin:miter;stroke-miterlimit:4;stroke-opacity:1;stroke-dasharray:none"
       d="M 989.5633,-374.65619 456.78393,-112.1002"
       id="path3864-5"
       inkscape:connector-curvature="0"
       inkscape:transform-center-x="7.426265"
       inkscape:transform-center-y="-73.217825" />
    <rect
       style="fill:#000000;fill-opacity:0;stroke:#000000;stroke-width:3.20552468;stroke-miterlimit:4;stroke-opacity:1;stroke-dasharray:none"
       id="rect3890"
       width="268.19449"
       height="140.19447"
       x="611.90277"
       y="-484.39725" />
    <text
       xml:space="preserve"
       style="font-size:40px;font-style:normal;font-weight:normal;line-height:125%;letter-spacing:0px;word-spacing:0px;fill:#000000;fill-opacity:1;stroke:none;font-family:Sans"
       x="626"
       y="-422"
       id="text3895"
       sodipodi:linespacing="125%"><tspan
         sodipodi:role="line"
         id="tspan3897"
         x="626"
         y="-422">Commercial</tspan><tspan
         sodipodi:role="line"
         x="626"
         y="-372"
         id="tspan3899">License</tspan></text>
  </g>
</svg>
